inDegrees=yes
name=ik_S44_A09_T02
DataType=double
version=3
OpenSimVersion=4.3-2021-08-27-4bc7ad9
endheader
time	pelvis_tilt	pelvis_list	pelvis_rotation	pelvis_tx	pelvis_ty	pelvis_tz	hip_flexion_r	hip_adduction_r	hip_rotation_r	knee_angle_r	knee_angle_r_beta	ankle_angle_r	subtalar_angle_r	mtp_angle_r	hip_flexion_l	hip_adduction_l	hip_rotation_l	knee_angle_l	knee_angle_l_beta	ankle_angle_l	subtalar_angle_l	mtp_angle_l	lumbar_extension	lumbar_bending	lumbar_rotation	arm_flex_r	arm_add_r	arm_rot_r	elbow_flex_r	pro_sup_r	wrist_flex_r	wrist_dev_r	arm_flex_l	arm_add_l	arm_rot_l	elbow_flex_l	pro_sup_l	wrist_flex_l	wrist_dev_l
0	0	0	0	0	0.9399999999999999	0	0	0	0	0	0	0	0	0	0	0	0	0	0	0	0	0	0	0	0	0	0	0	0	89.99999999963507	0	0	0	0	0	0	89.99999999869995	0	0
0.02	-14.03882828220145	-1.615799137468557	26.84688336698526	0	0.9399999999999999	0	2.991392806689802	-1.410433169812177	-1.008171205942412	4.639357149098982	0.08097205742771471	0	0	0	2.991392806689802	-1.410433169812177	-1.008171205942412	4.639357149098982	0.08097205742771471	0	0	0	-8.685157458664333	-5.672869513212668	5.471713570098573	32.08233122304642	-4.710978839119203	4.41121545249336	50.81569921836868	129.2199309282496	0	0	31.26480654397572	5.400016951716063	-0.6333481674482918	50.17003601136674	120.6911432329215	0	0
0.04	-11.64359412389491	-3.352981913795378	30.03979401835774	0	0.9399999999999999	0	31.13938900500884	-11.81470159452494	-9.850097372638762	35.98655799617276	0.6280839234931076	0	0	0	31.13938900500884	-11.81470159452494	-9.850097372638762	35.98655799617276	0.6280839234931076	0	0	0	-10.14264515792172	-2.524816132007998	2.931617368264524	32.07757034904934	-4.784723063625781	4.347932252281675	50.86396575826552	129.1671760534342	0	0	31.23298621972621	5.434289347844985	-0.5441941624249003	50.23672693821876	120.6932227851636	0	0
0.06	-11.63928551122163	-3.352154102526378	30.01906252114244	0	0.9399999999999999	0	31.14845545640966	-11.80986213198665	-9.850332315084252	35.99514472434593	0.6282337901717032	0	0	0	31.14845545640966	-11.80986213198665	-9.850332315084252	35.99514472434593	0.6282337901717032	0	0	0	-10.14010596491861	-2.520647043867732	2.914889079755264	32.0929669399492	-4.748811564804863	4.381355269725235	50.85933612587934	129.1835318556083	0	0	31.25301351836855	5.396053323979098	-0.5772381259723258	50.17959964358901	120.6310666452977	0	0
0.08	-11.64092034749649	-3.339222485038966	30.01424244499781	0	0.9399999999999999	0	31.16078654699771	-11.80314751903421	-9.850656674552152	36.00670844841701	0.6284356152305356	0	0	0	31.16078654699771	-11.80314751903421	-9.850656674552152	36.00670844841701	0.6284356152305356	0	0	0	-10.1363335936623	-2.504744228285611	2.911634618948704	32.09805243350829	-4.753942155707775	4.397283811665903	50.84132567717301	129.2030957187165	0	0	31.26219786637865	5.399061325423144	-0.5767151766349869	50.12557431544519	120.5680518618736	0	0
0.1	-11.64150088143665	-3.330469873963827	30.01220193388135	0	0.9399999999999999	0	31.18059008422126	-11.7944555813845	-9.851118456630095	36.02588952184125	0.6287703881158554	0	0	0	31.18059008422126	-11.7944555813845	-9.851118456630095	36.02588952184125	0.6287703881158554	0	0	0	-10.13398420555794	-2.492177135753175	2.913600744167331	32.10303920237155	-4.767373581034605	4.416671474199199	50.84951335895327	129.1827630409943	0	0	31.26021918162843	5.390561282735709	-0.5584960089068327	50.11460043594843	120.5069979094679	0	0
0.12	-11.64099391452821	-3.322418455973343	30.01097056844743	0	0.9399999999999999	0	31.20074299351973	-11.78306163383202	-9.851663598785475	36.04456828315517	0.6290963940009774	0	0	0	31.20074299351973	-11.78306163383202	-9.851663598785475	36.04456828315517	0.6290963940009774	0	0	0	-10.13105420191197	-2.480929676454746	2.915779251390423	32.10504112718717	-4.751414846417272	4.41062295536035	50.83040891775612	129.1793021225133	0	0	31.25473075489564	5.401912304155787	-0.555445026576697	50.06112232732389	120.4919472456625	0	0
0.14	-11.64326914068668	-3.308922303230138	30.00855988776548	0	0.9399999999999999	0	31.22015175707253	-11.77083485498801	-9.852224606867077	36.06218329810598	0.6294038340096572	0	0	0	31.22015175707253	-11.77083485498801	-9.852224606867077	36.06218329810598	0.6294038340096572	0	0	0	-10.12781312908169	-2.463755649858391	2.917545131200773	32.10655766634653	-4.74261740478354	4.387388751679682	50.82933782694082	129.2017993895734	0	0	31.27483642286655	5.374410009625438	-0.5449426349418022	50.03469767632795	120.4415528620499	0	0
0.16	-11.64482384076258	-3.28756557403897	30.01942036529768	0	0.9399999999999999	0	31.24069157577715	-11.75926603603069	-9.852780661840169	36.08118621399237	0.6297354974593542	0	0	0	31.24069157577715	-11.75926603603069	-9.852780661840169	36.08118621399237	0.6297354974593542	0	0	0	-10.12006509532937	-2.439911362204459	2.921139410343612	32.0847840845439	-4.736280686042236	4.372007752530035	50.83475694882873	129.2612125870357	0	0	31.28237876414342	5.404957505423183	-0.5626667595006735	49.98920703994254	120.4062876668141	0	0
0.18	-11.64211023471243	-3.275077777361861	30.03826172349107	0	0.9399999999999999	0	31.27299370247136	-11.74439897709653	-9.853556974982409	36.11216695311276	0.6302762133617065	0	0	0	31.27299370247136	-11.74439897709653	-9.853556974982409	36.11216695311276	0.6302762133617065	0	0	0	-10.11392497771417	-2.423730265737166	2.928421187692231	32.06110774272614	-4.772680342843481	4.357964905815243	50.87046894886067	129.2241115462195	0	0	31.28569585565728	5.402985813682507	-0.5560848765733197	49.99820891301346	120.3648842826832	0	0
0.2	-11.64305982267156	-3.250909041712201	30.047790228256	0	0.9399999999999999	0	31.28725512613266	-11.73412271345327	-9.854008915881062	36.12464886687081	0.6304940638537343	0	0	0	31.28725512613266	-11.73412271345327	-9.854008915881062	36.12464886687081	0.6304940638537343	0	0	0	-10.10364928671515	-2.399886951045911	2.933972296766565	32.05202522540426	-4.789444573124553	4.373432388524883	50.85718904079958	129.2682218994106	0	0	31.26303539488825	5.421967032623056	-0.5486289178869825	49.94054586212933	120.3750378961302	0	0
0.22	-11.64623223851718	-3.227164101203617	30.05214479403599	0	0.9399999999999999	0	31.32916665625752	-11.71368110314699	-9.855051463571106	36.16444459479629	0.6311886303342618	0	0	0	31.32916665625752	-11.71368110314699	-9.855051463571106	36.16444459479629	0.6311886303342618	0	0	0	-10.09799434553036	-2.367329142797969	2.935299365288685	32.03442363401526	-4.799697252131038	4.38433337351923	50.89280456559338	129.2036748545711	0	0	31.26564725427	5.43401478292444	-0.5633701341253599	49.97772897808023	120.308320117136	0	0
